<svg width="77" height="14" viewBox="0 0 77 14" fill="none" xmlns="http://www.w3.org/2000/svg">
<g id="IMAGE" clip-path="url(#clip0_1_316)">
<path id="Vector" d="M69.776 13.0885C72.9976 13.0885 75.6093 10.4769 75.6093 7.25521C75.6093 4.03355 72.9976 1.42188 69.776 1.42188C66.5543 1.42188 63.9426 4.03355 63.9426 7.25521C63.9426 10.4769 66.5543 13.0885 69.776 13.0885Z" stroke="#FFCA42"/>
<path id="Vector_2" d="M69.7761 13.5886C68.9444 13.5886 68.1208 13.4248 67.3524 13.1065C66.584 12.7882 65.8858 12.3217 65.2977 11.7336C64.7096 11.1455 64.2431 10.4473 63.9248 9.67887C63.6065 8.91048 63.4427 8.08692 63.4427 7.25521C63.4427 6.42351 63.6065 5.59995 63.9248 4.83155C64.2431 4.06316 64.7096 3.36497 65.2977 2.77687C65.8858 2.18877 66.584 1.72225 67.3524 1.40397C68.1208 1.08569 68.9444 0.921875 69.7761 0.921875V7.25521V13.5886Z" fill="#FFCA42"/>
<path id="Vector_3" d="M53.9427 13.5885C57.4405 13.5885 60.276 10.753 60.276 7.25521C60.276 3.7574 57.4405 0.921875 53.9427 0.921875C50.4449 0.921875 47.6094 3.7574 47.6094 7.25521C47.6094 10.753 50.4449 13.5885 53.9427 13.5885Z" fill="#FFCA42"/>
<path id="Vector_4" d="M38.1095 13.5885C41.6073 13.5885 44.4428 10.753 44.4428 7.25521C44.4428 3.7574 41.6073 0.921875 38.1095 0.921875C34.6116 0.921875 31.7761 3.7574 31.7761 7.25521C31.7761 10.753 34.6116 13.5885 38.1095 13.5885Z" fill="#FFCA42"/>
<path id="Vector_5" d="M22.276 13.5885C25.7738 13.5885 28.6093 10.753 28.6093 7.25521C28.6093 3.7574 25.7738 0.921875 22.276 0.921875C18.7782 0.921875 15.9426 3.7574 15.9426 7.25521C15.9426 10.753 18.7782 13.5885 22.276 13.5885Z" fill="#FFCA42"/>
<path id="Vector_6" d="M6.44271 13.5885C9.94051 13.5885 12.776 10.753 12.776 7.25521C12.776 3.7574 9.94051 0.921875 6.44271 0.921875C2.9449 0.921875 0.109375 3.7574 0.109375 7.25521C0.109375 10.753 2.9449 13.5885 6.44271 13.5885Z" fill="#FFCA42"/>
</g>
<defs>
<clipPath id="clip0_1_316">
<rect width="76" height="13" fill="white" transform="translate(0.109375 0.921875)"/>
</clipPath>
</defs>
</svg>
